<svg width="64" height="64" viewBox="0 0 64 64" fill="none" xmlns="http://www.w3.org/2000/svg">
<path fill-rule="evenodd" clip-rule="evenodd" d="M64 11.4V52.6C64 58.8875 58.8875 64 52.6 64H11.4C5.1125 64 0 58.8875 0 52.6V11.4C0 5.1125 5.1125 0 11.4 0H52.6C58.8875 0 64 5.1125 64 11.4Z" fill="#EF5350"/>
<path fill-rule="evenodd" clip-rule="evenodd" d="M48.75 32C48.75 38.1875 43.725 43.2125 37.5375 43.2125C31.35 43.2125 26.325 38.1875 26.325 32C26.325 25.8125 31.35 20.7875 37.5375 20.7875C43.725 20.7875 48.75 25.8125 48.75 32Z" fill="#CE2029"/>
<path fill-rule="evenodd" clip-rule="evenodd" d="M26.7 24.45C25.2 26.5875 24.325 29.2 24.325 32C24.325 39.2875 30.25 45.2125 37.5375 45.2125C44.825 45.2125 50.75 39.2875 50.75 32C50.75 28.4375 49.3375 25.2125 47.0375 22.8375L47.175 22.875L64 37.275V52.6C64 58.8875 58.8875 64 52.6 64H40.825L14.1625 41.125H14.25H24.5C25.05 41.125 25.5 40.675 25.5 40.125C25.5 39.575 25.05 39.125 24.5 39.125H19.1L16.6875 37.0625H17.0375H22.55H23.125V36.8875C23.3875 36.7125 23.55 36.4 23.55 36.075C23.55 35.7375 23.3875 35.4375 23.125 35.25V35.075H22.55H17.0375H16.65L14.25 33H21.9875C22.5375 33 22.9875 32.55 22.9875 32C22.9875 31.45 22.5375 31 21.9875 31H19.1L16.6875 28.9375H17.05H20.6H22.5625C23.125 28.9375 23.5625 28.4875 23.5625 27.9375C23.5625 27.3875 23.1125 26.9375 22.5625 26.9375H20.6H17.05H16.6625L14.25 24.875H24.5C25.05 24.875 25.5 24.425 25.5 23.875C25.5 23.6 25.3875 23.35 25.2 23.175L26.7 24.45Z" fill="#CE2029"/>
<path fill-rule="evenodd" clip-rule="evenodd" d="M50.75 32C50.75 24.7125 44.825 18.7875 37.5375 18.7875C30.25 18.7875 24.325 24.7125 24.325 32C24.325 39.2875 30.25 45.2125 37.5375 45.2125C44.825 45.2125 50.75 39.2875 50.75 32ZM46.2875 31H40.1625C39.875 30.2625 39.2875 29.675 38.55 29.3875V23.2625C38.55 22.7125 38.1 22.2625 37.55 22.2625C37 22.2625 36.55 22.7125 36.55 23.2625V29.3875C35.5 29.7875 34.75 30.8125 34.75 32C34.75 33.5375 36 34.8 37.55 34.8C38.7375 34.8 39.7625 34.05 40.1625 33H46.2875C46.8375 33 47.2875 32.55 47.2875 32C47.2875 31.45 46.8375 31 46.2875 31ZM38.3375 32C38.3375 32.4375 37.975 32.8 37.5375 32.8C37.1 32.8 36.7375 32.4375 36.7375 32C36.7375 31.5625 37.1 31.2 37.5375 31.2C37.975 31.2 38.3375 31.5625 38.3375 32ZM13.25 23.875C13.25 24.425 13.7 24.875 14.25 24.875H24.5C25.05 24.875 25.5 24.425 25.5 23.875C25.5 23.325 25.05 22.875 24.5 22.875H14.25C13.7 22.875 13.25 23.325 13.25 23.875ZM23.5625 27.9375C23.5625 27.3875 23.1125 26.9375 22.5625 26.9375H17.05C16.5 26.9375 16.05 27.3875 16.05 27.9375C16.05 28.4875 16.5 28.9375 17.05 28.9375H22.5625C23.125 28.9375 23.5625 28.4875 23.5625 27.9375ZM22.5625 35.0625H17.05C16.5 35.0625 16.05 35.5125 16.05 36.0625C16.05 36.6125 16.5 37.0625 17.05 37.0625H22.5625C23.1125 37.0625 23.5625 36.6125 23.5625 36.0625C23.5625 35.5125 23.125 35.0625 22.5625 35.0625ZM13.25 32C13.25 32.55 13.7 33 14.25 33H21.9875C22.5375 33 22.9875 32.55 22.9875 32C22.9875 31.45 22.5375 31 21.9875 31H14.25C13.7 31 13.25 31.45 13.25 32ZM25.5 40.125C25.5 39.575 25.05 39.125 24.5 39.125H14.25C13.7 39.125 13.25 39.575 13.25 40.125C13.25 40.675 13.7 41.125 14.25 41.125H24.5C25.05 41.125 25.5 40.675 25.5 40.125ZM48.75 32C48.75 38.1875 43.725 43.2125 37.5375 43.2125C31.35 43.2125 26.325 38.1875 26.325 32C26.325 25.8125 31.35 20.7875 37.5375 20.7875C43.725 20.7875 48.75 25.8125 48.75 32Z" fill="white"/>
</svg>
