<svg width="64" height="64" viewBox="0 0 64 64" fill="none" xmlns="http://www.w3.org/2000/svg">
<g clip-path="url(#clip0_116_5078)">
<path fill-rule="evenodd" clip-rule="evenodd" d="M52.6 0H11.4C5.1125 0 0 5.1125 0 11.4V52.6C0 58.8875 5.1125 64 11.4 64H52.6C58.8875 64 64 58.8875 64 52.6V11.4C64 5.1125 58.8875 0 52.6 0Z" fill="#EF5350"/>
<path d="M35.425 31.525H36.85V27.4875C36.85 26.9375 37.3 26.4875 37.85 26.4875C38.4 26.4875 38.85 26.9375 38.85 27.4875V31.525H39.4125C39.9625 31.525 40.4125 31.9751 40.4125 32.5251C40.4125 33.0751 39.9625 33.5251 39.4125 33.5251H38.85V36.5C38.85 37.05 38.4 37.5 37.85 37.5C37.3 37.5 36.85 37.05 36.85 36.5V33.5251H35.425H33.5C32.95 33.5251 32.5 33.0751 32.5 32.5251V27.4875C32.5 26.9375 32.95 26.4875 33.5 26.4875C34.05 26.4875 34.5 26.9375 34.5 27.4875V31.525H35.425Z" stroke="black" stroke-width="0.567" stroke-miterlimit="10"/>
<path d="M26.6625 35.5H30.8375C31.3875 35.5 31.8375 35.95 31.8375 36.5C31.8375 37.05 31.3875 37.5 30.8375 37.5H26.6625C24.975 37.5 23.6 36.0375 23.6 34.25C23.6 32.3625 24.7875 31 26.425 31H28.5125C29.0875 31 29.575 30.425 29.575 29.75C29.575 29.075 29.0875 28.5 28.5125 28.5H24.3375C23.7875 28.5 23.3375 28.05 23.3375 27.5C23.3375 26.95 23.7875 26.5 24.3375 26.5H28.5125C30.2 26.5 31.575 27.9625 31.575 29.75C31.575 31.5375 30.2 33 28.5125 33H26.425C25.775 33 25.6 33.7875 25.6 34.25C25.5875 34.925 26.0875 35.5 26.6625 35.5Z" stroke="black" stroke-width="0.567" stroke-miterlimit="10"/>
<path fill-rule="evenodd" clip-rule="evenodd" d="M32 17.0375C39.5 17.0375 45.7 22.5375 46.8 29.725C47.075 29.675 47.3375 29.5125 47.4875 29.2375L50.6125 23.8375C50.85 23.4125 50.7625 22.9 50.4125 22.6L64 34.25V52.6C64 58.8875 58.8875 64 52.6 64H40.0125L13.75 41.525C13.9125 41.625 14.075 41.6625 14.25 41.6625C14.5875 41.6625 14.925 41.4875 15.1125 41.1625L16.95 37.975C18.025 40.6875 19.85 43.1125 22.1875 44.8875C25.0375 47.0625 28.425 48.2 32 48.2C35.6875 48.2 39.3 46.925 42.1625 44.6125C44.9875 42.3375 46.9875 39.1375 47.7875 35.625C47.9125 35.0875 47.575 34.55 47.05 34.425C46.9625 34.4 46.8625 34.3875 46.775 34.4C45.625 41.525 39.45 46.9625 32 46.9625C23.7375 46.9625 17.0375 40.2625 17.0375 31.9875C17.0375 23.8875 23.55 17.0375 32 17.0375Z" fill="#CE2029"/>
<path fill-rule="evenodd" clip-rule="evenodd" d="M50.6125 23.8375L47.4875 29.2375C47.3 29.5625 46.9625 29.7375 46.625 29.7375C46.45 29.7375 46.2875 29.7 46.125 29.6L40.725 26.4875C40.25 26.2125 40.0875 25.6 40.3625 25.125C40.6375 24.65 41.25 24.4875 41.725 24.7625L45.175 26.75C43.05 21.425 37.8125 17.8125 32 17.8125C25.3375 17.8125 19.6375 22.3375 18.1625 28.825C18.0625 29.2875 17.65 29.6 17.1875 29.6C17.1125 29.6 17.0375 29.5875 16.9625 29.575C16.425 29.45 16.0875 28.9125 16.2125 28.375C17.0125 24.8625 19.0125 21.6625 21.8375 19.3875C24.7 17.075 28.3125 15.8 32 15.8C35.575 15.8 38.9625 16.9375 41.8 19.1125C44.1375 20.8875 45.95 23.3125 47.0375 26.025L48.875 22.8375C49.15 22.3625 49.7625 22.2 50.2375 22.475C50.725 22.75 50.8875 23.35 50.6125 23.8375ZM47.7875 35.625C46.9875 39.1376 44.9875 42.3375 42.1625 44.6125C39.3 46.925 35.6875 48.2001 32 48.2001C28.425 48.2001 25.0375 47.0625 22.1875 44.8876C19.85 43.1126 18.025 40.6875 16.95 37.975L15.1125 41.1625C14.925 41.4875 14.5875 41.6625 14.25 41.6625C14.075 41.6625 13.9125 41.6251 13.75 41.5251C13.275 41.2501 13.1125 40.6375 13.3875 40.1625L16.5 34.7626C16.6375 34.5375 16.85 34.3625 17.1125 34.3C17.3625 34.2375 17.6375 34.2626 17.875 34.4001L23.275 37.5251C23.75 37.8001 23.9125 38.4125 23.6375 38.8876C23.3625 39.3626 22.75 39.525 22.275 39.25L18.825 37.25C20.95 42.5751 26.1875 46.1875 32.0125 46.1875C38.675 46.1875 44.3625 41.6625 45.85 35.175C45.975 34.6375 46.5125 34.3 47.05 34.425C47.575 34.55 47.9125 35.0875 47.7875 35.625ZM26.6625 35.5H30.8375C31.3875 35.5 31.8375 35.9501 31.8375 36.5C31.8375 37.05 31.3875 37.5 30.8375 37.5H26.6625C24.975 37.5 23.6 36.0375 23.6 34.25C23.6 32.3625 24.7875 31 26.425 31H28.5125C29.0875 31 29.575 30.425 29.575 29.75C29.575 29.075 29.0875 28.5 28.5125 28.5H24.3375C23.7875 28.5 23.3375 28.05 23.3375 27.5C23.3375 26.95 23.7875 26.5 24.3375 26.5H28.5125C30.2 26.5 31.575 27.9625 31.575 29.75C31.575 31.5375 30.2 33 28.5125 33H26.425C25.775 33 25.6 33.7875 25.6 34.25C25.5875 34.925 26.0875 35.5 26.6625 35.5ZM35.425 31.525H36.85V27.4875C36.85 26.9375 37.3 26.4875 37.85 26.4875C38.4 26.4875 38.85 26.9375 38.85 27.4875V31.525H39.4125C39.9625 31.525 40.4125 31.9751 40.4125 32.5251C40.4125 33.0751 39.9625 33.5251 39.4125 33.5251H38.85V36.5C38.85 37.05 38.4 37.5 37.85 37.5C37.3 37.5 36.85 37.05 36.85 36.5V33.5251H35.425H33.5C32.95 33.5251 32.5 33.0751 32.5 32.5251V27.4875C32.5 26.9375 32.95 26.4875 33.5 26.4875C34.05 26.4875 34.5 26.9375 34.5 27.4875V31.525H35.425Z" fill="white"/>
</g>
<defs>
<clipPath id="clip0_116_5078">
<rect width="64" height="64" fill="white"/>
</clipPath>
</defs>
</svg>
