<svg width="64" height="64" viewBox="0 0 64 64" fill="none" xmlns="http://www.w3.org/2000/svg">
<path fill-rule="evenodd" clip-rule="evenodd" d="M64 11.4V52.6C64 58.8875 58.8875 64 52.6 64H11.4C5.1125 64 0 58.8875 0 52.6V11.4C0 5.1125 5.1125 0 11.4 0H52.6C58.8875 0 64 5.1125 64 11.4Z" fill="#EF5350"/>
<path fill-rule="evenodd" clip-rule="evenodd" d="M50.7625 33.4C50.7625 30.2625 48.3625 27.675 45.2875 27.3875C44.8875 20.4125 39.0875 14.85 32 14.85C24.925 14.85 19.125 20.4 18.725 27.3875C15.6625 27.675 13.25 30.2625 13.25 33.4C13.25 36.7375 15.9625 39.4375 19.2875 39.4375H22.3125C22.8625 39.4375 23.3125 38.9875 23.3125 38.4375V28.35C23.3125 27.8 22.8625 27.35 22.3125 27.35H20.7125C21.125 21.4875 26.025 16.85 31.9875 16.85C37.95 16.85 42.85 21.5 43.2625 27.35H41.6625C41.1125 27.35 40.6625 27.8 40.6625 28.35V33.3875V38.425V42.2875C40.6625 43.8 39.425 45.0375 37.9125 45.0375H34.9375C34.525 43.8 33.35 42.9125 31.975 42.9125C30.25 42.9125 28.85 44.3125 28.85 46.0375C28.85 47.7625 30.25 49.1625 31.975 49.1625C33.35 49.1625 34.5125 48.275 34.9375 47.0375H37.9125C40.5375 47.0375 42.6625 44.9125 42.6625 42.2875V39.425H44.6875C48.05 39.425 50.7625 36.725 50.7625 33.4ZM33.125 46.05C33.125 46.675 32.625 47.175 32 47.175C31.375 47.175 30.875 46.675 30.875 46.05C30.875 45.425 31.375 44.925 32 44.925C32.625 44.925 33.125 45.4125 33.125 46.05ZM44.725 29.35H42.7V33.3875V37.425H44.725C46.95 37.425 48.7625 35.6125 48.7625 33.3875C48.7625 31.1625 46.95 29.35 44.725 29.35ZM15.2625 33.4C15.2625 35.625 17.075 37.4375 19.3 37.4375H21.325V29.35H19.3C17.0625 29.35 15.2625 31.1625 15.2625 33.4Z" fill="white"/>
<path fill-rule="evenodd" clip-rule="evenodd" d="M15.2625 33.4C15.2625 35.625 17.075 37.4375 19.3 37.4375H21.325V29.35H19.3C17.0625 29.35 15.2625 31.1625 15.2625 33.4Z" fill="#CE2029"/>
<path fill-rule="evenodd" clip-rule="evenodd" d="M44.725 29.35H42.7V33.3875V37.425H44.725C46.95 37.425 48.7625 35.6125 48.7625 33.3875C48.7625 31.1625 46.95 29.35 44.725 29.35Z" fill="#CE2029"/>
<path fill-rule="evenodd" clip-rule="evenodd" d="M33.125 46.05C33.125 46.675 32.625 47.175 32 47.175C31.375 47.175 30.875 46.675 30.875 46.05C30.875 45.425 31.375 44.925 32 44.925C32.625 44.925 33.125 45.4125 33.125 46.05Z" fill="#CE2029"/>
<path fill-rule="evenodd" clip-rule="evenodd" d="M41.5375 18.8875L64 38.1125V52.6C64 58.8875 58.8875 64 52.6 64H45.7625L15.575 38.1625C16.6 38.9625 17.8875 39.425 19.275 39.425H22.3C22.85 39.425 23.3 38.975 23.3 38.425V28.3375C23.3 27.7875 22.85 27.3375 22.3 27.3375H20.7C21.1125 21.475 26.0125 16.8375 31.975 16.8375C37.9375 16.8375 42.8375 21.4875 43.25 27.3375H41.65C41.1 27.3375 40.65 27.7875 40.65 28.3375V33.375V38.4125V42.275C40.65 43.7875 39.4125 45.025 37.9 45.025H34.925C34.5125 43.7875 33.3375 42.9 31.9625 42.9C30.2375 42.9 28.8375 44.3 28.8375 46.025C28.8375 47.75 30.2375 49.15 31.9625 49.15C33.3375 49.15 34.5 48.2625 34.925 47.025H37.9C40.525 47.025 42.65 44.9 42.65 42.275V39.4125H44.675C48.0375 39.425 50.75 36.7125 50.75 33.3875C50.75 30.25 48.35 27.6625 45.275 27.375C45.0875 24.0875 43.7 21.1125 41.5375 18.8875Z" fill="#CE2029"/>
</svg>
